<svg width="171" height="171" viewBox="0 0 171 171" fill="none" xmlns="http://www.w3.org/2000/svg">
<path fill-rule="evenodd" clip-rule="evenodd" d="M98.8451 135.502C95.5766 136.323 92.2251 136.861 88.8267 137.1L88.8316 137.19L86.8892 137.25C86.5084 137.246 86.1578 137.247 85.8128 137.248L85.0152 137.281L85.0134 137.25C80.2942 137.244 75.6328 136.661 71.1243 135.538C66.5802 136.653 61.9178 137.216 57.2382 137.212C43.6965 137.237 30.577 132.501 20.1747 123.83C9.77227 115.16 2.74918 103.109 0.333829 89.7845L0 87.9484L1.82852 87.5842C6.3288 86.7093 10.9089 86.3391 15.4839 86.4779C15.2987 86.078 15.1177 85.6729 14.9393 85.2625C12.1143 78.8146 10.5041 71.9005 10.1897 64.868L10.1138 63.2746L11.6312 62.9332C12.1927 62.8043 12.7617 62.6904 13.3308 62.5842C19.3357 61.4571 25.4804 61.2805 31.5402 62.0607C35.1899 62.5269 38.7839 63.3442 42.2723 64.4998C42.2399 63.7062 42.223 62.9092 42.223 62.1138C42.2241 58.2121 42.6181 54.3205 43.399 50.4977L43.8543 48.2595L45.9711 49.1244C46.4947 49.3369 47.0182 49.5645 47.5341 49.7921C49.8432 50.8184 52.0765 51.9916 54.2211 53.3021C56.5259 48.4624 59.494 43.9635 63.0425 39.9363L64.135 38.692L65.5159 39.61C67.1912 40.7207 68.8069 41.9186 70.3566 43.1988C71.2928 43.9741 72.2044 44.7783 73.0901 45.6101C75.9865 40.9808 79.5226 36.7789 83.5963 33.1305L84.8634 32L86.1305 33.1305C88.0157 34.8361 89.7897 36.6608 91.4416 38.5933C93.3564 40.8248 95.0976 43.1982 96.6503 45.6924C99.0311 43.4559 101.6 41.4205 104.332 39.61L105.706 38.692L106.798 39.9363C110.352 43.9605 113.321 48.4603 115.622 53.3028C117.757 52.0009 119.979 50.8351 122.276 49.8149C122.696 49.627 123.126 49.4391 123.536 49.2597L123.794 49.1472L125.91 48.2898L126.442 50.4977C127.219 54.3337 127.61 58.2378 127.61 62.1517C127.61 62.9227 127.596 63.6952 127.566 64.4679C131.041 63.3204 134.62 62.5088 138.255 62.0455C144.315 61.2697 150.458 61.4437 156.464 62.5614C157.041 62.6752 157.602 62.7891 158.164 62.918L159.719 63.2595L159.651 64.8528C159.333 71.8849 157.723 78.7983 154.901 85.2473C154.716 85.673 154.526 86.0929 154.331 86.509C158.968 86.3587 163.611 86.7313 168.171 87.6221L170 87.9863L169.666 89.8225C167.253 103.137 160.238 115.18 149.849 123.849C139.459 132.518 126.354 137.261 112.822 137.25C108.11 137.219 103.419 136.632 98.8451 135.502ZM94.3223 53.7282C96.1898 56.8562 97.7533 60.1534 98.9928 63.5743C99.4079 64.7182 99.7869 65.8758 100.129 67.0455L100.706 66.2868L101.237 65.6494C103.336 63.1215 105.648 60.7785 108.149 58.6464C109.507 57.478 110.926 56.3703 112.382 55.346C110.437 51.1606 107.964 47.2415 105.023 43.6844C103.945 44.4431 102.891 45.2549 101.874 46.0971C100.392 47.3262 98.9771 48.6343 97.6359 50.0158L97.61 50.0425L97.5053 50.1534C96.9382 50.7543 96.3752 51.3506 95.8301 51.9548C95.3151 52.5352 94.8124 53.1265 94.3223 53.7282ZM101.329 71.8415C102.088 75.6078 102.468 79.4404 102.466 83.2822L102.451 83.6388L102.785 84.0106C102.995 84.2371 103.193 84.4678 103.393 84.7004L103.394 84.7011L103.455 84.7731C103.571 84.9044 103.686 85.0362 103.8 85.1685C103.85 85.2251 103.901 85.2817 103.953 85.3384C105.224 86.8148 106.417 88.3572 107.527 89.959C108.665 89.2003 109.803 88.5326 111.001 87.8877C113.206 86.6752 115.487 85.6081 117.83 84.6935L118.02 84.6176L119.109 84.2089C119.774 82.7331 120.37 81.2294 120.897 79.7027C122.102 76.2086 122.944 72.5952 123.407 68.9196C123.478 68.3434 123.542 67.7606 123.594 67.1773L123.604 67.0607L123.677 66.1933C123.778 64.8445 123.824 63.4829 123.824 62.1214C123.823 59.2477 123.598 56.3786 123.149 53.5402C120.783 54.6281 118.5 55.8858 116.316 57.3034L115.819 57.6297C114.234 58.6813 112.707 59.8176 111.245 61.0338C111.036 61.2076 110.828 61.3829 110.622 61.5599C108.43 63.4292 106.393 65.4714 104.528 67.6667C104.404 67.813 104.281 67.96 104.158 68.1078L103.68 68.7071L103.659 68.7329C103.221 69.2734 102.791 69.8275 102.37 70.3926C102.016 70.8684 101.669 71.3519 101.329 71.8415ZM121.919 87.2669C127.245 85.5064 132.846 84.5732 138.528 84.5341C138.302 86.9473 137.914 89.3427 137.367 91.7041C136.184 96.8103 134.259 101.716 131.654 106.264C131.618 106.324 131.583 106.385 131.547 106.445L131.474 106.57C131.164 107.097 130.854 107.623 130.523 108.138L128.73 110.99C126.902 113.545 124.843 115.95 122.568 118.171C113.409 127.113 101.355 132.488 88.5826 133.326C88.2861 130.072 87.716 126.867 86.8867 123.742C90.1039 112.508 96.8722 102.617 106.179 95.5491C106.495 95.3092 106.813 95.0731 107.134 94.8406L108.103 94.2154C111.567 91.8204 115.297 89.8345 119.218 88.2974L119.37 88.2367C119.954 88.0091 120.539 87.7966 121.13 87.5918L121.889 87.3338L121.919 87.2669ZM125.202 120.743C128.369 117.643 131.145 114.213 133.494 110.531C141.291 105.432 147.748 98.5354 152.324 90.4222C156.741 90.1102 161.18 90.3084 165.554 91.0137C162.929 103.05 156.262 113.825 146.663 121.546C137.064 129.268 125.111 133.471 112.792 133.457C110.651 133.442 108.514 133.304 106.393 133.044C113.348 130.237 119.751 126.08 125.202 120.743ZM17.4884 90.387C22.0691 98.5296 28.5472 105.448 36.3733 110.554C38.9032 114.517 41.9267 118.187 45.399 121.468C50.7038 126.479 56.8573 130.394 63.5077 133.07C58.6842 133.635 53.7959 133.547 48.9754 132.802C41.8227 131.697 34.9648 129.167 28.8085 125.361C22.6522 121.556 17.3229 116.552 13.1367 110.648C8.95049 104.744 5.99261 98.0596 4.43854 90.9909C8.75279 90.295 13.1309 90.0927 17.4884 90.387ZM42.6783 69.3824C42.6445 69.1154 42.612 68.8471 42.5812 68.5781C38.8768 67.2384 35.0371 66.3072 31.1305 65.8012C25.4542 65.075 19.6992 65.2415 14.0743 66.2944C14.5296 72.3139 15.9968 78.2135 18.4142 83.7451C18.695 84.39 18.9909 85.0273 19.2944 85.6571C19.7041 86.4993 20.129 87.3263 20.569 88.1153C23.5436 93.5194 27.418 98.3766 32.0258 102.478C29.3134 96.2309 27.7334 89.5514 27.3596 82.7511L27.2458 80.8088L29.1957 80.7481H30.9939C36.0595 80.7387 41.1044 81.3952 45.9989 82.7009C44.3643 78.4151 43.2482 73.9438 42.6783 69.3824ZM48.6009 119.293C38.725 110.257 32.5566 97.8755 31.2913 84.5497C37.2014 84.5792 43.0662 85.5839 48.6494 87.5235L50.0963 88.0256C50.2278 88.0754 50.3592 88.1257 50.4904 88.1765L50.6221 88.2291C53.9818 89.5416 57.2001 91.1867 60.2293 93.139L60.22 93.1532L61.7375 94.2003C72.1633 101.459 79.7028 112.154 83.0349 124.413L83.8043 127.252C84.24 129.291 84.5592 131.362 84.7572 133.457C71.3661 133.381 58.4806 128.333 48.6009 119.293ZM141.07 92.5311C141.265 91.6851 141.442 90.835 141.6 89.9817C142.04 87.6088 142.333 85.1994 142.473 82.7663L142.58 80.8239L142.578 80.8239L142.58 80.8012L140.637 80.7405H138.832C133.781 80.7336 128.752 81.3877 123.871 82.6859C125.094 79.4623 126.025 76.1347 126.652 72.7433C126.86 71.6267 127.035 70.5033 127.178 69.3748L127.269 68.5706C130.982 67.2276 134.832 66.2939 138.748 65.786C144.415 65.0662 150.159 65.2325 155.774 66.2792C155.325 72.2989 153.86 78.1991 151.442 83.7299C151.153 84.3748 150.865 85.0121 150.554 85.6495C150.152 86.4841 149.719 87.3111 149.287 88.1077C146.307 93.5104 142.43 98.3672 137.822 102.47C139.205 99.2629 140.292 95.9361 141.07 92.5311ZM98.5198 79.778C98.3473 77.1205 97.98 74.4778 97.4203 71.871L97.2458 71.1123L97.266 71.0823C97.0829 70.2733 96.8782 69.463 96.6692 68.6616C95.4016 64.16 93.5551 59.8443 91.1773 55.822L90.4097 54.61C88.7864 52.0305 86.9493 49.5919 84.9177 47.32C82.9068 49.5721 81.0867 51.9877 79.4764 54.5417C76.7148 58.9174 74.6037 63.6712 73.2094 68.654C72.9508 69.5518 72.7194 70.4701 72.4895 71.3958L72.4241 71.6931L72.4097 71.7686L72.3975 71.8331L72.2475 72.5274C71.7584 74.9367 71.4347 77.3756 71.2781 79.827C72.142 79.0693 73.0285 78.3116 73.9302 77.5918C76.153 75.8301 78.5011 74.2325 80.9559 72.8118C81.9802 72.22 83.0273 71.6586 84.0819 71.1351L84.9317 70.7102L85.7739 71.1351C86.8133 71.651 87.8755 72.22 88.9302 72.827L89.8786 73.3885C92.0416 74.6991 94.1173 76.1488 96.0925 77.7284C96.9216 78.3841 97.7282 79.0698 98.5198 79.778ZM98.6343 85.1212C95.1963 81.6071 91.2934 78.5784 87.0333 76.1199L86.6464 75.8922C86.0762 75.5696 85.5134 75.2618 84.9506 74.9689C77.1496 79.0221 70.4539 84.9151 65.4427 92.1379C67.2722 93.4942 69.0285 94.9639 70.7006 96.5425C77.0089 102.498 81.8375 109.74 84.9179 117.691C88.876 107.501 95.6347 98.6379 104.415 92.1239C103.373 90.6269 102.256 89.1827 101.07 87.7966C100.713 87.3793 100.349 86.9696 99.9772 86.5599C99.9123 86.4894 99.8473 86.4185 99.7823 86.3474C99.5813 86.1278 99.3793 85.907 99.173 85.695L98.6343 85.1335V85.1212ZM51.2723 84.4346L50.7359 84.2307C48.5568 79.3811 47.1145 74.2333 46.4567 68.9575C46.3808 68.3404 46.3126 67.7183 46.2519 67.091C46.1077 65.4674 46.0318 63.8133 46.0318 62.1593C46.0323 59.2857 46.2581 56.4165 46.7071 53.5781C54.0378 56.9609 60.5188 61.9409 65.6752 68.1533L66.1608 68.7451C66.9954 69.7466 67.7541 70.8012 68.5129 71.871C67.7573 75.6406 67.3761 79.4756 67.3748 83.3202V83.6616C67.2687 83.7904 67.1551 83.9116 67.0414 84.0329C66.6393 84.4653 66.2519 84.9135 65.8801 85.3536C64.6161 86.8294 63.4201 88.3732 62.3071 89.9699C58.8294 87.7313 55.1289 85.8773 51.2723 84.4346ZM69.6838 67.0594C71.0561 62.377 73.0111 57.9039 75.491 53.7407C74.4544 52.4703 73.3575 51.2452 72.2154 50.0728C70.8651 48.6898 69.439 47.3828 67.9438 46.1578C66.9347 45.3156 65.8801 44.5114 64.8027 43.7451C61.8599 47.2913 59.384 51.2003 57.4355 55.3763C58.8922 56.4082 60.311 57.5083 61.6768 58.6768C64.1752 60.8109 66.4875 63.1537 68.5887 65.6798C68.7051 65.8165 68.8216 65.9599 68.938 66.1033C68.9961 66.1748 69.0542 66.2464 69.1123 66.3171L69.6838 67.0594ZM84.9127 41.7839L84.9165 41.78L86.2822 43.1988C88.4358 45.4281 90.4048 47.8285 92.1699 50.3763C92.7314 49.7238 93.308 49.0713 93.8998 48.4416C92.3374 45.8401 90.5609 43.3733 88.5887 41.0668C87.4127 39.6935 86.1608 38.3809 84.8558 37.129C83.566 38.3581 82.3369 39.6555 81.176 40.9985C79.2057 43.2822 77.4292 45.7262 75.8649 48.305C76.4871 48.9651 77.0941 49.6404 77.6783 50.3384C79.2004 48.1517 80.8708 46.0727 82.6777 44.116C82.9628 43.8072 83.2513 43.5014 83.5432 43.1988L84.9089 41.78L84.9127 41.7839Z" fill="white"/>
</svg>
