<svg width="172" height="171" viewBox="0 0 172 171" fill="none" xmlns="http://www.w3.org/2000/svg">
<path fill-rule="evenodd" clip-rule="evenodd" d="M99.8451 135.226C96.5766 136.045 93.2251 136.581 89.8267 136.82L89.8316 136.909L87.8892 136.97C87.5084 136.965 87.1578 136.966 86.8128 136.967L86.0152 137L86.0134 136.97C81.2942 136.964 76.6328 136.382 72.1243 135.262C67.5802 136.374 62.9178 136.935 58.2382 136.932C44.6965 136.957 31.577 132.233 21.1747 123.586C10.7723 114.939 3.74918 102.92 1.33383 89.6304L1 87.7992L2.82852 87.436C7.3288 86.5634 11.9089 86.1942 16.4839 86.3326C16.2987 85.9338 16.1177 85.5298 15.9393 85.1205C13.1143 78.6898 11.5041 71.7942 11.1897 64.7803L11.1138 63.1913L12.6312 62.8508C13.1927 62.7221 13.7617 62.6086 14.3308 62.5027C20.3357 61.3786 26.4804 61.2024 32.5402 61.9805C36.1899 62.4455 39.7839 63.2606 43.2723 64.4132C43.2399 63.6216 43.223 62.8268 43.223 62.0335C43.2241 58.1422 43.6181 54.2609 44.399 50.4484L44.8543 48.2161L46.9711 49.0788C47.4947 49.2907 48.0182 49.5177 48.5341 49.7447C50.8432 50.7682 53.0765 51.9383 55.2211 53.2453C57.5259 48.4185 60.494 43.9316 64.0425 39.9151L65.135 38.6741L66.5159 39.5897C68.1912 40.6975 69.8069 41.8922 71.3566 43.1689C72.2928 43.9421 73.2044 44.7442 74.0901 45.5738C76.9865 40.9568 80.5226 36.7661 84.5963 33.1275L85.8634 32L87.1305 33.1275C89.0157 34.8286 90.7897 36.6484 92.4416 38.5757C94.3564 40.8013 96.0976 43.1683 97.6503 45.6559C100.031 43.4254 102.6 41.3954 105.332 39.5897L106.706 38.6741L107.798 39.9151C111.352 43.9286 114.321 48.4165 116.622 53.246C118.757 51.9476 120.979 50.7848 123.276 49.7674C123.696 49.58 124.126 49.3926 124.536 49.2137L124.794 49.1015L126.91 48.2464L127.442 50.4484C128.219 54.2741 128.61 58.1678 128.61 62.0713C128.61 62.8403 128.596 63.6107 128.566 64.3813C132.041 63.2369 135.62 62.4275 139.255 61.9654C145.315 61.1916 151.458 61.3652 157.464 62.48C158.041 62.5935 158.602 62.707 159.164 62.8356L160.719 63.1761L160.651 64.7652C160.333 71.7785 158.723 78.6735 155.901 85.1053C155.716 85.5298 155.526 85.9487 155.331 86.3637C159.968 86.2138 164.611 86.5854 169.171 87.4738L171 87.837L170.666 89.6683C168.253 102.947 161.238 114.958 150.849 123.604C140.459 132.25 127.354 136.98 113.822 136.97C109.11 136.939 104.419 136.353 99.8451 135.226ZM95.3223 53.6703C97.1898 56.7899 98.7533 60.0783 99.9928 63.4901C100.408 64.631 100.787 65.7855 101.129 66.9521L101.706 66.1954L102.237 65.5597C104.336 63.0385 106.648 60.7018 109.149 58.5754C110.507 57.4101 111.926 56.3053 113.382 55.2837C111.437 51.1095 108.964 47.2008 106.023 43.6532C104.945 44.4099 103.891 45.2196 102.874 46.0595C101.392 47.2853 99.9771 48.5899 98.6359 49.9677L98.61 49.9944L98.5053 50.105C97.9382 50.7043 97.3752 51.299 96.8301 51.9016C96.3151 52.4804 95.8124 53.0701 95.3223 53.6703ZM102.329 71.7353C103.088 75.4915 103.468 79.3139 103.466 83.1455L103.451 83.5011L103.785 83.8719C103.995 84.0978 104.193 84.3279 104.393 84.5599L104.394 84.5606L104.455 84.6324C104.571 84.7633 104.686 84.8948 104.8 85.0268C104.85 85.0832 104.901 85.1397 104.953 85.1961C106.224 86.6686 107.417 88.2069 108.527 89.8045C109.665 89.0478 110.803 88.3819 112.001 87.7387C114.206 86.5294 116.487 85.4652 118.83 84.553L119.02 84.4773L120.109 84.0697C120.774 82.5978 121.37 81.0981 121.897 79.5755C123.102 76.0908 123.944 72.487 124.407 68.8211C124.478 68.2465 124.542 67.6652 124.594 67.0835L124.604 66.9672L124.677 66.1022C124.778 64.7569 124.824 63.399 124.824 62.0411C124.823 59.1751 124.598 56.3135 124.149 53.4828C121.783 54.5677 119.5 55.8221 117.316 57.2359L116.819 57.5614C115.234 58.6101 113.707 59.7435 112.245 60.9564C112.036 61.1297 111.828 61.3046 111.622 61.4811C109.43 63.3454 107.393 65.3821 105.528 67.5716C105.404 67.7175 105.281 67.8642 105.158 68.0115L104.68 68.6093L104.659 68.635C104.221 69.174 103.791 69.7267 103.37 70.2902C103.016 70.7647 102.669 71.2469 102.329 71.7353ZM122.919 87.1195C128.245 85.3637 133.846 84.4331 139.528 84.394C139.302 86.8008 138.914 89.1898 138.367 91.5449C137.184 96.6375 135.259 101.53 132.654 106.066C132.618 106.126 132.583 106.187 132.547 106.247L132.474 106.371C132.164 106.897 131.854 107.422 131.523 107.935L129.73 110.779C127.902 113.328 125.843 115.726 123.568 117.941C114.409 126.86 102.355 132.22 89.5826 133.056C89.2861 129.81 88.716 126.614 87.8867 123.498C91.1039 112.293 97.8722 102.429 107.179 95.3796C107.495 95.1404 107.813 94.9049 108.134 94.6731L109.103 94.0496C112.567 91.6609 116.297 89.6803 120.218 88.1473L120.37 88.0867C120.954 87.8597 121.539 87.6479 122.13 87.4436L122.889 87.1863L122.919 87.1195ZM126.202 120.507C129.369 117.415 132.145 113.994 134.494 110.322C142.291 105.236 148.748 98.358 153.324 90.2664C157.741 89.9553 162.18 90.1529 166.554 90.8563C163.929 102.86 157.262 113.607 147.663 121.308C138.064 129.009 126.111 133.201 113.792 133.186C111.651 133.171 109.514 133.034 107.393 132.774C114.348 129.975 120.751 125.829 126.202 120.507ZM18.4884 90.2313C23.0691 98.3523 29.5472 105.252 37.3733 110.344C39.9032 114.297 42.9267 117.958 46.399 121.229C51.7038 126.227 57.8573 130.131 64.5077 132.801C59.6842 133.364 54.7959 133.276 49.9754 132.534C42.8227 131.431 35.9648 128.908 29.8085 125.112C23.6522 121.317 18.3229 116.327 14.1367 110.439C9.95049 104.55 6.99261 97.8835 5.43854 90.8336C9.75279 90.1396 14.1309 89.9378 18.4884 90.2313ZM43.6783 69.2827C43.6445 69.0164 43.612 68.7488 43.5812 68.4806C39.8768 67.1444 36.0371 66.2157 32.1305 65.7111C26.4542 64.9869 20.6992 65.1528 15.0743 66.2029C15.5296 72.2064 16.9968 78.0903 19.4142 83.6071C19.695 84.2503 19.9909 84.8859 20.2944 85.514C20.7041 86.3539 21.129 87.1787 21.569 87.9657C24.5436 93.3554 28.418 98.1996 33.0258 102.29C30.3134 96.0597 28.7334 89.3979 28.3596 82.6158L28.2458 80.6787L30.1957 80.6181H31.9939C37.0595 80.6087 42.1044 81.2635 46.9989 82.5657C45.3643 78.2913 44.2482 73.832 43.6783 69.2827ZM49.6009 119.061C39.725 110.048 33.5566 97.6999 32.2913 84.4096C38.2014 84.439 44.0662 85.441 49.6494 87.3755L51.0963 87.8762C51.2278 87.9259 51.3592 87.976 51.4904 88.0267L51.6221 88.0792C54.9818 89.3882 58.2001 91.0289 61.2293 92.976L61.22 92.9902L62.7375 94.0344C73.1633 101.273 80.7028 111.94 84.0349 124.166L84.8043 126.998C85.24 129.031 85.5592 131.097 85.7572 133.186C72.3661 133.111 59.4806 128.076 49.6009 119.061ZM142.07 92.3697C142.265 91.5259 142.442 90.6782 142.6 89.8271C143.04 87.4606 143.333 85.0576 143.473 82.631L143.58 80.6938L143.578 80.6937L143.58 80.6711L141.637 80.6105H139.832C134.781 80.6037 129.752 81.256 124.871 82.5507C126.094 79.3357 127.025 76.017 127.652 72.6347C127.86 71.521 128.035 70.4007 128.178 69.2751L128.269 68.473C131.982 67.1337 135.832 66.2025 139.748 65.696C145.415 64.978 151.159 65.1439 156.774 66.1878C156.325 72.1914 154.86 78.076 152.442 83.5919C152.153 84.2351 151.865 84.8708 151.554 85.5064C151.152 86.3388 150.719 87.1636 150.287 87.9581C147.307 93.3464 143.43 98.1902 138.822 102.282C140.205 99.0836 141.292 95.7656 142.07 92.3697ZM99.5198 79.6506C99.3473 77.0002 98.98 74.3645 98.4203 71.7647L98.2458 71.008L98.266 70.9781C98.0829 70.1712 97.8782 69.3631 97.6692 68.5639C96.4016 64.0743 94.5551 59.77 92.1773 55.7585L91.4097 54.5497C89.7864 51.9771 87.9493 49.545 85.9177 47.2792C83.9068 49.5253 82.0867 51.9344 80.4764 54.4816C77.7148 58.8456 75.6037 63.5867 74.2094 68.5563C73.9508 69.4517 73.7194 70.3675 73.4895 71.2908L73.4241 71.5873L73.4097 71.6626L73.3975 71.7269L73.2475 72.4193C72.7584 74.8222 72.4347 77.2546 72.2781 79.6994C73.142 78.9437 74.0285 78.1882 74.9302 77.4703C77.153 75.7132 79.5011 74.1199 81.9559 72.703C82.9802 72.1128 84.0273 71.5528 85.0819 71.0307L85.9317 70.607L86.7739 71.0307C87.8133 71.5453 88.8755 72.1128 89.9302 72.7181L90.8786 73.2781C93.0416 74.5852 95.1173 76.0311 97.0925 77.6065C97.9216 78.2604 98.7282 78.9443 99.5198 79.6506ZM99.6343 84.9796C96.1963 81.4749 92.2934 78.4542 88.0333 76.0023L87.6464 75.7752C87.0762 75.4534 86.5134 75.1465 85.9506 74.8543C78.1496 78.8967 71.4539 84.774 66.4427 91.9776C68.2722 93.3303 70.0285 94.796 71.7006 96.3704C78.0089 102.31 82.8375 109.533 85.9179 117.462C89.876 107.3 96.6347 98.4603 105.415 91.9636C104.373 90.4706 103.256 89.0302 102.07 87.6478C101.713 87.2317 101.349 86.8231 100.977 86.4145C100.912 86.3441 100.847 86.2734 100.782 86.2025C100.581 85.9835 100.379 85.7633 100.173 85.5518L99.6343 84.9919V84.9796ZM52.2723 84.2948L51.7359 84.0914C49.5568 79.2548 48.1145 74.1207 47.4567 68.859C47.3808 68.2435 47.3126 67.623 47.2519 66.9975C47.1077 65.3781 47.0318 63.7285 47.0318 62.0789C47.0323 59.2129 47.2581 56.3514 47.7071 53.5206C55.0378 56.8943 61.5188 61.8611 66.6752 68.0569L67.1608 68.6471C67.9954 69.6459 68.7541 70.6977 69.5129 71.7647C68.7573 75.5242 68.3761 79.349 68.3748 83.1833V83.5239C68.2687 83.6523 68.1551 83.7732 68.0414 83.8941C67.6393 84.3254 67.2519 84.7724 66.8801 85.2113C65.6161 86.6832 64.4201 88.2229 63.3071 89.8154C59.8294 87.5827 56.1289 85.7337 52.2723 84.2948ZM70.6838 66.9659C72.0561 62.296 74.0111 57.8348 76.491 53.6828C75.4544 52.4158 74.3575 51.1939 73.2154 50.0247C71.8651 48.6453 70.439 47.3418 68.9438 46.1201C67.9347 45.2801 66.8801 44.478 65.8027 43.7138C62.8599 47.2506 60.384 51.1491 58.4355 55.314C59.8922 56.3431 61.311 57.4403 62.6768 58.6057C65.1752 60.7341 67.4875 63.0706 69.5887 65.59C69.7051 65.7263 69.8216 65.8693 69.938 66.0123C69.9961 66.0837 70.0542 66.1551 70.1123 66.2256L70.6838 66.9659ZM85.9127 41.7578L85.9165 41.7539L87.2822 43.1689C89.4358 45.3923 91.4048 47.7863 93.1699 50.3273C93.7314 49.6766 94.308 49.0258 94.8998 48.3977C93.3374 45.8032 91.5609 43.3429 89.5887 41.0426C88.4127 39.673 87.1608 38.3639 85.8558 37.1153C84.566 38.3412 83.3369 39.6351 82.176 40.9745C80.2057 43.2521 78.4292 45.6896 76.8649 48.2615C77.4871 48.9199 78.0941 49.5933 78.6783 50.2895C80.2004 48.1086 81.8708 46.0352 83.6777 44.0837C83.9628 43.7757 84.2513 43.4708 84.5432 43.1689L85.9089 41.7539L85.9127 41.7578Z" fill="white"/>
</svg>
